<?xml version="1.0" encoding="utf-8"?>
<!-- Generator: Adobe Illustrator 16.0.0, SVG Export Plug-In . SVG Version: 6.00 Build 0)  -->
<!DOCTYPE svg PUBLIC "-//W3C//DTD SVG 1.1//EN" "http://www.w3.org/Graphics/SVG/1.1/DTD/svg11.dtd">
<svg version="1.1" id="Layer_1" xmlns="http://www.w3.org/2000/svg" xmlns:xlink="http://www.w3.org/1999/xlink" x="0px" y="0px"
	 width="490.833px" height="116.305px" viewBox="0 0 490.833 116.305" enable-background="new 0 0 490.833 116.305"
	 xml:space="preserve">
<g>
	<g>
		<path fill="#C15327" d="M137.427,45.277V18.15h1.893v27.127H137.427z"/>
		<path fill="#C15327" d="M161.975,38.282c0,2.264-0.832,4.058-2.496,5.381c-1.663,1.323-3.875,1.984-6.633,1.984
			c-3.315,0-5.857-0.364-7.626-1.095V42.66c1.954,0.829,4.446,1.242,7.478,1.242c2.227,0,3.992-0.51,5.297-1.53
			c1.306-1.021,1.958-2.359,1.958-4.018c0-1.025-0.217-1.877-0.649-2.551c-0.434-0.674-1.139-1.29-2.115-1.846
			c-0.978-0.558-2.412-1.156-4.305-1.8c-2.771-0.952-4.686-1.982-5.742-3.09c-1.059-1.106-1.587-2.582-1.587-4.425
			c0-2.027,0.795-3.683,2.384-4.963c1.59-1.28,3.634-1.92,6.133-1.92c2.548,0,4.941,0.482,7.181,1.447l-0.687,1.633
			c-2.252-0.94-4.404-1.41-6.457-1.41c-2.004,0-3.6,0.464-4.787,1.393c-1.187,0.928-1.781,2.188-1.781,3.784
			c0,1.002,0.183,1.825,0.547,2.469c0.365,0.644,0.962,1.222,1.791,1.734c0.828,0.515,2.251,1.129,4.268,1.847
			c2.115,0.729,3.704,1.438,4.769,2.125c1.063,0.687,1.84,1.466,2.329,2.338C161.731,35.99,161.975,37.045,161.975,38.282z"/>
		<path fill="#C15327" d="M190.512,31.676c0,4.305-1.076,7.709-3.229,10.214c-2.153,2.505-5.121,3.757-8.906,3.757
			c-3.773,0-6.735-1.252-8.888-3.757c-2.153-2.505-3.229-5.922-3.229-10.251c0-4.316,1.085-7.715,3.257-10.196
			c2.17-2.479,5.136-3.72,8.896-3.72c3.785,0,6.747,1.247,8.888,3.739C189.442,23.955,190.512,27.359,190.512,31.676z
			 M168.321,31.676c0,3.884,0.865,6.887,2.598,9.008c1.731,2.122,4.218,3.183,7.459,3.183c3.266,0,5.762-1.052,7.486-3.154
			c1.727-2.104,2.589-5.115,2.589-9.036c0-3.909-0.862-6.905-2.589-8.99c-1.725-2.084-4.209-3.126-7.449-3.126
			c-3.229,0-5.718,1.052-7.469,3.154C169.196,24.817,168.321,27.805,168.321,31.676z"/>
		<path fill="#C15327" d="M218.196,19.467c-3.402,0-6.08,1.089-8.034,3.266c-1.955,2.178-2.932,5.158-2.932,8.943
			c0,3.872,0.921,6.878,2.765,9.018c1.843,2.141,4.478,3.21,7.904,3.21c2.275,0,4.366-0.291,6.271-0.871v1.67
			c-1.794,0.631-4.033,0.945-6.717,0.945c-3.811,0-6.81-1.229-8.999-3.691c-2.189-2.461-3.284-5.9-3.284-10.316
			c0-2.758,0.522-5.188,1.567-7.292c1.046-2.103,2.549-3.726,4.51-4.871c1.96-1.144,4.239-1.716,6.837-1.716
			c2.646,0,5.016,0.495,7.106,1.484l-0.761,1.707C222.451,19.962,220.373,19.467,218.196,19.467z"/>
		<path fill="#C15327" d="M237.901,45.648c-2.932,0-5.217-0.902-6.856-2.709c-1.639-1.806-2.458-4.335-2.458-7.589
			c0-3.216,0.791-5.792,2.375-7.728c1.583-1.937,3.717-2.904,6.401-2.904c2.375,0,4.249,0.829,5.622,2.486s2.06,3.908,2.06,6.754
			v1.483h-14.528c0.024,2.771,0.671,4.887,1.938,6.347c1.269,1.46,3.083,2.188,5.446,2.188c1.15,0,2.161-0.08,3.034-0.241
			c0.871-0.16,1.976-0.507,3.312-1.038v1.67c-1.139,0.494-2.189,0.832-3.154,1.011C240.128,45.557,239.063,45.648,237.901,45.648z
			 M237.363,26.351c-1.942,0-3.501,0.641-4.676,1.92c-1.176,1.28-1.862,3.126-2.06,5.539h12.469c0-2.338-0.508-4.166-1.521-5.482
			C240.56,27.01,239.156,26.351,237.363,26.351z"/>
		<path fill="#C15327" d="M258.551,24.718c0.855,0,1.77,0.087,2.746,0.26l-0.353,1.764c-0.842-0.21-1.714-0.315-2.616-0.315
			c-1.72,0-3.129,0.73-4.229,2.189c-1.103,1.46-1.651,3.303-1.651,5.528v11.133h-1.837V25.108h1.56l0.186,3.638h0.13
			c0.828-1.484,1.714-2.526,2.653-3.126C256.079,25.019,257.215,24.718,258.551,24.718z"/>
		<path fill="#C15327" d="M270.724,44.015c1.161,0,2.177-0.099,3.043-0.297v1.484c-0.892,0.297-1.918,0.444-3.08,0.444
			c-1.78,0-3.097-0.476-3.942-1.429c-0.848-0.952-1.271-2.449-1.271-4.49V26.704h-2.987v-1.076l2.987-0.835l0.928-4.564h0.946v4.88
			h5.919v1.597h-5.919v12.766c0,1.546,0.271,2.69,0.816,3.433C268.708,43.644,269.561,44.015,270.724,44.015z"/>
		<path fill="#C15327" d="M277.868,19.504c0-1.188,0.391-1.781,1.17-1.781c0.383,0,0.684,0.155,0.898,0.464
			c0.217,0.311,0.325,0.749,0.325,1.317c0,0.557-0.108,0.996-0.325,1.316c-0.216,0.322-0.518,0.482-0.898,0.482
			C278.256,21.304,277.868,20.705,277.868,19.504z M279.963,45.277h-1.836V25.108h1.836V45.277z"/>
		<path fill="#C15327" d="M294.213,26.704h-4.75v18.572h-1.836V26.704h-3.748v-1.076l3.748-0.688v-1.559
			c0-2.474,0.453-4.289,1.363-5.446c0.908-1.155,2.396-1.734,4.463-1.734c1.112,0,2.227,0.167,3.34,0.501l-0.428,1.596
			c-0.99-0.309-1.974-0.464-2.949-0.464c-1.437,0-2.453,0.424-3.053,1.271c-0.601,0.849-0.9,2.225-0.9,4.128v1.874h4.75V26.704z
			 M297.851,19.504c0-1.188,0.39-1.781,1.169-1.781c0.383,0,0.684,0.155,0.898,0.464c0.218,0.311,0.326,0.749,0.326,1.317
			c0,0.557-0.108,0.996-0.326,1.316c-0.215,0.322-0.517,0.482-0.898,0.482C298.241,21.304,297.851,20.705,297.851,19.504z
			 M299.948,45.277h-1.837V25.108h1.837V45.277z"/>
		<path fill="#C15327" d="M314.846,45.648c-2.932,0-5.217-0.902-6.855-2.709c-1.639-1.806-2.457-4.335-2.457-7.589
			c0-3.216,0.791-5.792,2.375-7.728c1.582-1.937,3.717-2.904,6.4-2.904c2.375,0,4.248,0.829,5.621,2.486s2.061,3.908,2.061,6.754
			v1.483h-14.527c0.023,2.771,0.67,4.887,1.938,6.347c1.27,1.46,3.084,2.188,5.445,2.188c1.15,0,2.162-0.08,3.035-0.241
			c0.871-0.16,1.977-0.507,3.312-1.038v1.67c-1.141,0.494-2.189,0.832-3.154,1.011S316.008,45.648,314.846,45.648z M314.309,26.351
			c-1.941,0-3.502,0.641-4.676,1.92c-1.176,1.28-1.861,3.126-2.061,5.539h12.469c0-2.338-0.508-4.166-1.52-5.482
			C317.506,27.01,316.102,26.351,314.309,26.351z"/>
		<path fill="#C15327" d="M334.942,24.718c1.459,0,2.721,0.266,3.785,0.798c1.062,0.532,2.016,1.441,2.857,2.729h0.111
			c-0.074-1.56-0.111-3.086-0.111-4.583v-7.255h1.818v28.87h-1.207l-0.463-3.079h-0.148c-1.535,2.301-3.736,3.45-6.605,3.45
			c-2.783,0-4.91-0.865-6.383-2.598c-1.473-1.731-2.209-4.255-2.209-7.57c0-3.487,0.73-6.153,2.189-7.997
			C330.038,25.64,332.159,24.718,334.942,24.718z M334.942,26.388c-2.201,0-3.855,0.773-4.963,2.319s-1.66,3.792-1.66,6.734
			c0,5.716,2.219,8.572,6.66,8.572c2.275,0,3.945-0.662,5.01-1.985c1.062-1.322,1.596-3.507,1.596-6.55v-0.314
			c0-3.117-0.521-5.359-1.568-6.727C338.971,27.073,337.28,26.388,334.942,26.388z"/>
	</g>
	<g>
		<path fill="#003E7E" d="M137.163,98.813V55.269h7.119v37.439h18.438v6.104H137.163z"/>
		<path fill="#003E7E" d="M190.091,98.813l-1.4-4.586h-0.238c-1.588,2.006-3.187,3.371-4.795,4.097
			c-1.608,0.725-3.674,1.086-6.195,1.086c-3.236,0-5.764-0.873-7.58-2.621c-1.817-1.746-2.726-4.22-2.726-7.416
			c0-3.396,1.261-5.957,3.782-7.685c2.522-1.728,6.364-2.671,11.527-2.829l5.689-0.18v-1.757c0-2.104-0.492-3.678-1.475-4.721
			c-0.983-1.042-2.507-1.563-4.572-1.563c-1.688,0-3.307,0.249-4.855,0.745c-1.549,0.497-3.037,1.083-4.467,1.757l-2.264-5.004
			c1.787-0.933,3.742-1.643,5.867-2.13c2.125-0.486,4.13-0.729,6.017-0.729c4.189,0,7.352,0.914,9.486,2.74
			c2.135,1.827,3.202,4.696,3.202,8.608v22.188L190.091,98.813L190.091,98.813z M179.667,94.048c2.542,0,4.582-0.709,6.121-2.129
			c1.538-1.42,2.308-3.41,2.308-5.974v-2.858l-4.229,0.18c-3.297,0.119-5.694,0.67-7.193,1.652c-1.5,0.981-2.249,2.488-2.249,4.514
			c0,1.469,0.437,2.605,1.311,3.41C176.609,93.646,177.919,94.048,179.667,94.048z"/>
		<path fill="#003E7E" d="M221.693,65.276c4.111,0,7.312,1.489,9.606,4.469c2.293,2.979,3.44,7.158,3.44,12.54
			c0,5.4-1.162,9.605-3.485,12.613c-2.323,3.009-5.55,4.513-9.681,4.513c-4.17,0-7.406-1.498-9.709-4.496h-0.477l-1.281,3.899
			h-5.242V52.469h7V63.49c0,0.813-0.04,2.024-0.119,3.634c-0.08,1.607-0.14,2.631-0.18,3.067h0.299
			C214.088,66.915,217.365,65.276,221.693,65.276z M219.876,70.995c-2.819,0-4.851,0.829-6.091,2.486
			c-1.241,1.658-1.882,4.434-1.921,8.325v0.478c0,4.01,0.635,6.915,1.906,8.711c1.271,1.797,3.346,2.694,6.225,2.694
			c2.482,0,4.363-0.981,5.645-2.946c1.28-1.968,1.921-4.808,1.921-8.52C227.561,74.738,225,70.995,219.876,70.995z"/>
		<path fill="#003E7E" d="M284.57,86.99c0,3.872-1.399,6.909-4.198,9.114c-2.802,2.203-6.662,3.306-11.588,3.306
			c-4.925,0-8.955-0.765-12.093-2.293v-6.73c1.985,0.934,4.097,1.668,6.329,2.203c2.234,0.537,4.314,0.805,6.24,0.805
			c2.818,0,4.898-0.537,6.24-1.608c1.34-1.072,2.01-2.513,2.01-4.318c0-1.627-0.615-3.008-1.848-4.141
			c-1.229-1.131-3.771-2.472-7.625-4.021c-3.971-1.607-6.771-3.445-8.397-5.51c-1.63-2.065-2.443-4.547-2.443-7.446
			c0-3.634,1.291-6.493,3.873-8.578c2.581-2.085,6.046-3.127,10.396-3.127c4.17,0,8.32,0.914,12.449,2.74l-2.264,5.808
			c-3.872-1.628-7.326-2.441-10.365-2.441c-2.304,0-4.051,0.501-5.242,1.504c-1.19,1.003-1.787,2.329-1.787,3.977
			c0,1.133,0.238,2.101,0.716,2.904s1.261,1.563,2.353,2.278c1.094,0.715,3.059,1.658,5.898,2.83
			c3.195,1.331,5.539,2.571,7.029,3.723c1.488,1.152,2.58,2.453,3.274,3.902C284.222,83.315,284.57,85.024,284.57,86.99z"/>
		<path fill="#003E7E" d="M306.641,99.409c-5.123,0-9.131-1.494-12.02-4.482c-2.89-2.988-4.334-7.104-4.334-12.346
			c0-5.38,1.342-9.61,4.021-12.688c2.682-3.078,6.363-4.617,11.051-4.617c4.35,0,7.783,1.321,10.307,3.961
			c2.52,2.642,3.781,6.275,3.781,10.901v3.782h-21.951c0.101,3.197,0.963,5.654,2.592,7.373c1.629,1.717,3.922,2.576,6.881,2.576
			c1.945,0,3.758-0.185,5.436-0.552c1.678-0.366,3.48-0.979,5.406-1.832v5.689c-1.709,0.814-3.436,1.389-5.184,1.727
			C310.881,99.24,308.883,99.409,306.641,99.409z M305.36,70.578c-2.225,0-4.006,0.705-5.347,2.114
			c-1.341,1.41-2.14,3.466-2.397,6.166h14.953c-0.041-2.721-0.695-4.78-1.967-6.181C309.333,71.278,307.583,70.578,305.36,70.578z"
			/>
		<path fill="#003E7E" d="M344.11,65.276c1.41,0,2.572,0.101,3.484,0.299l-0.684,6.522c-0.994-0.238-2.025-0.356-3.1-0.356
			c-2.801,0-5.068,0.913-6.807,2.739c-1.736,1.827-2.604,4.199-2.604,7.119v17.214h-7v-32.94h5.479l0.924,5.808h0.357
			c1.092-1.966,2.518-3.523,4.273-4.676C340.194,65.853,342.084,65.276,344.11,65.276z"/>
		<path fill="#003E7E" d="M361.208,98.813l-12.51-32.94h7.387l6.701,19.151c1.15,3.218,1.848,5.818,2.086,7.804h0.238
			c0.178-1.431,0.873-4.031,2.084-7.804l6.701-19.151h7.445l-12.568,32.94H361.208z"/>
		<path fill="#003E7E" d="M385.928,57.145c0-1.251,0.344-2.214,1.027-2.889c0.686-0.675,1.662-1.013,2.934-1.013
			c1.23,0,2.189,0.338,2.875,1.013s1.027,1.638,1.027,2.889c0,1.191-0.344,2.129-1.027,2.815c-0.686,0.685-1.645,1.026-2.875,1.026
			c-1.27,0-2.248-0.343-2.934-1.026C386.272,59.274,385.928,58.336,385.928,57.145z M393.344,98.813h-7v-32.94h7V98.813z"/>
		<path fill="#003E7E" d="M416.637,99.409c-4.984,0-8.771-1.453-11.363-4.363c-2.592-2.908-3.887-7.084-3.887-12.524
			c0-5.54,1.355-9.799,4.064-12.777c2.711-2.979,6.627-4.469,11.75-4.469c3.477,0,6.604,0.646,9.383,1.937l-2.115,5.629
			c-2.957-1.151-5.398-1.729-7.326-1.729c-5.697,0-8.549,3.783-8.549,11.349c0,3.692,0.711,6.468,2.131,8.324
			c1.418,1.856,3.498,2.784,6.238,2.784c3.119,0,6.066-0.772,8.848-2.321v6.104c-1.252,0.734-2.588,1.263-4.006,1.578
			C420.385,99.251,418.663,99.409,416.637,99.409z"/>
		<path fill="#003E7E" d="M447.942,99.409c-5.123,0-9.131-1.494-12.02-4.482s-4.334-7.104-4.334-12.346
			c0-5.38,1.342-9.61,4.021-12.688c2.682-3.078,6.363-4.617,11.051-4.617c4.35,0,7.785,1.321,10.307,3.961
			c2.521,2.642,3.781,6.275,3.781,10.901v3.782h-21.951c0.102,3.197,0.963,5.654,2.592,7.373c1.629,1.717,3.922,2.576,6.881,2.576
			c1.945,0,3.758-0.185,5.436-0.552c1.678-0.366,3.48-0.979,5.406-1.832v5.689c-1.707,0.814-3.436,1.389-5.184,1.727
			C452.182,99.24,450.184,99.409,447.942,99.409z M446.661,70.578c-2.223,0-4.006,0.705-5.346,2.114
			c-1.342,1.41-2.141,3.466-2.398,6.166h14.953c-0.041-2.721-0.695-4.78-1.967-6.181S448.883,70.578,446.661,70.578z"/>
		<path fill="#003E7E" d="M490.833,89.433c0,3.217-1.172,5.685-3.516,7.4c-2.344,1.719-5.697,2.576-10.066,2.576
			c-4.389,0-7.912-0.664-10.574-1.994v-6.047c3.873,1.787,7.479,2.68,10.812,2.68c4.309,0,6.463-1.299,6.463-3.9
			c0-0.834-0.238-1.528-0.715-2.086c-0.477-0.555-1.262-1.131-2.354-1.727s-2.609-1.271-4.557-2.025
			c-3.793-1.471-6.359-2.938-7.699-4.409c-1.342-1.47-2.012-3.376-2.012-5.719c0-2.819,1.137-5.009,3.41-6.567
			c2.273-1.56,5.365-2.339,9.277-2.339c3.873,0,7.535,0.785,10.99,2.354l-2.264,5.271c-3.555-1.469-6.541-2.203-8.965-2.203
			c-3.693,0-5.539,1.053-5.539,3.156c0,1.033,0.48,1.906,1.443,2.622c0.963,0.715,3.062,1.697,6.299,2.948
			c2.723,1.053,4.697,2.016,5.928,2.89c1.23,0.873,2.145,1.88,2.74,3.023C490.534,86.478,490.833,87.843,490.833,89.433z"/>
	</g>
</g>
<g>
	<g>
		<path fill="#003E7E" d="M94.3,22.524c9.07,9.078,14.67,21.58,14.674,35.426c-0.004,13.467-5.301,25.659-13.938,34.669l5.002,5.953
			C110.345,88.13,116.71,73.784,116.71,57.95c0-16.909-7.256-32.12-18.82-42.695l-5.084,5.841
			C93.314,21.563,93.812,22.037,94.3,22.524"/>
		<path fill="#003E7E" d="M94.3,22.524c9.07,9.078,14.67,21.58,14.674,35.426c-0.004,13.467-5.301,25.659-13.938,34.669l5.002,5.953
			C110.345,88.13,116.71,73.784,116.71,57.95c0-16.909-7.256-32.12-18.82-42.695l-5.084,5.841
			C93.314,21.563,93.812,22.037,94.3,22.524z"/>
		<path fill="#003E7E" d="M8.775,57.95c0-13.847,5.602-26.349,14.674-35.426c0.486-0.487,0.984-0.962,1.49-1.428l-5.082-5.842
			C8.292,25.829,1.037,41.041,1.035,57.95c0.002,15.833,6.363,30.178,16.672,40.621l5.002-5.953
			C14.074,83.608,8.775,71.417,8.775,57.95"/>
		<path fill="#003E7E" d="M8.775,57.95c0-13.847,5.602-26.349,14.674-35.426c0.486-0.487,0.984-0.962,1.49-1.428l-5.082-5.842
			C8.292,25.829,1.037,41.041,1.035,57.95c0.002,15.833,6.363,30.178,16.672,40.621l5.002-5.953
			C14.074,83.608,8.775,71.417,8.775,57.95z"/>
		<path fill="#003E7E" d="M76.482,60.099H41.265c0.154,7.229,1.078,13.987,2.572,19.833h30.064
			C75.398,74.085,76.33,67.328,76.482,60.099"/>
		<path fill="#003E7E" d="M76.482,60.099H41.265c0.154,7.229,1.078,13.987,2.572,19.833h30.064
			C75.398,74.085,76.33,67.328,76.482,60.099z"/>
		<path fill="#003E7E" d="M72.718,84.031H45.029c2.006,6.13,4.709,10.916,7.596,13.678c2.105,2.016,4.182,2.948,6.248,2.949
			c2.068-0.001,4.145-0.934,6.248-2.949c2.09-2.005,4.1-5.068,5.801-8.941C71.566,87.298,72.167,85.714,72.718,84.031"/>
		<path fill="#003E7E" d="M72.718,84.031H45.029c2.006,6.13,4.709,10.916,7.596,13.678c2.105,2.016,4.182,2.948,6.248,2.949
			c2.068-0.001,4.145-0.934,6.248-2.949c2.09-2.005,4.1-5.068,5.801-8.941C71.566,87.298,72.167,85.714,72.718,84.031z"/>
		<path fill="#003E7E" d="M78.072,35.968c1.439,5.962,2.303,12.685,2.451,19.833h21.594c-0.354-7.217-2.475-13.969-5.938-19.833
			H78.072z"/>
		<path fill="#003E7E" d="M78.072,35.968c1.439,5.962,2.303,12.685,2.451,19.833h21.594c-0.354-7.217-2.475-13.969-5.938-19.833
			H78.072z"/>
		<path fill="#003E7E" d="M78.07,79.932h18.109c3.463-5.865,5.584-12.616,5.938-19.833H80.523
			C80.376,67.247,79.509,73.97,78.07,79.932"/>
		<path fill="#003E7E" d="M78.07,79.932h18.109c3.463-5.865,5.584-12.616,5.938-19.833H80.523
			C80.376,67.247,79.509,73.97,78.07,79.932z"/>
		<path fill="#003E7E" d="M74.619,25.509c0.863,1.964,1.641,4.096,2.332,6.361h16.482c-6.086-8.052-14.922-13.911-25.111-16.18
			C70.761,18.176,72.859,21.509,74.619,25.509"/>
		<path fill="#003E7E" d="M74.619,25.509c0.863,1.964,1.641,4.096,2.332,6.361h16.482c-6.086-8.052-14.922-13.911-25.111-16.18
			C70.761,18.176,72.859,21.509,74.619,25.509z"/>
		<path fill="#003E7E" d="M45.027,31.869h27.689c-2.004-6.13-4.707-10.917-7.596-13.679c-2.104-2.015-4.18-2.947-6.248-2.95
			c-2.066,0.003-4.143,0.935-6.248,2.95c-2.09,2.006-4.1,5.068-5.799,8.943C46.179,28.602,45.58,30.186,45.027,31.869"/>
		<path fill="#003E7E" d="M45.027,31.869h27.689c-2.004-6.13-4.707-10.917-7.596-13.679c-2.104-2.015-4.18-2.947-6.248-2.95
			c-2.066,0.003-4.143,0.935-6.248,2.95c-2.09,2.006-4.1,5.068-5.799,8.943C46.179,28.602,45.58,30.186,45.027,31.869z"/>
		<path fill="#003E7E" d="M41.263,55.801H76.48c-0.154-7.228-1.076-13.989-2.572-19.833H43.843
			C42.347,41.814,41.416,48.572,41.263,55.801"/>
		<path fill="#003E7E" d="M41.263,55.801H76.48c-0.154-7.228-1.076-13.989-2.572-19.833H43.843
			C42.347,41.814,41.416,48.572,41.263,55.801z"/>
		<path fill="#003E7E" d="M43.126,90.39c-0.861-1.963-1.639-4.096-2.33-6.359H24.312c6.086,8.053,14.922,13.91,25.111,16.18
			C46.982,97.725,44.886,94.392,43.126,90.39"/>
		<path fill="#003E7E" d="M43.126,90.39c-0.861-1.963-1.639-4.096-2.33-6.359H24.312c6.086,8.053,14.922,13.91,25.111,16.18
			C46.982,97.725,44.886,94.392,43.126,90.39z"/>
		<path fill="#003E7E" d="M76.953,84.031c-2.105,6.869-4.994,12.469-8.623,16.178c10.188-2.27,19.02-8.127,25.105-16.178H76.953z"/>
		<path fill="#003E7E" d="M76.953,84.031c-2.105,6.869-4.994,12.469-8.623,16.178c10.188-2.27,19.02-8.127,25.105-16.178H76.953z"/>
		<path fill="#003E7E" d="M21.566,35.968c-3.461,5.864-5.584,12.616-5.936,19.833h21.594c0.146-7.148,1.012-13.871,2.453-19.833
			H21.566z"/>
		<path fill="#003E7E" d="M21.566,35.968c-3.461,5.864-5.584,12.616-5.936,19.833h21.594c0.146-7.148,1.012-13.871,2.453-19.833
			H21.566z"/>
		<path fill="#003E7E" d="M37.224,60.099H15.63c0.352,7.217,2.475,13.968,5.936,19.833h18.109
			C38.234,73.97,37.371,67.247,37.224,60.099"/>
		<path fill="#003E7E" d="M37.224,60.099H15.63c0.352,7.217,2.475,13.968,5.936,19.833h18.109
			C38.234,73.97,37.371,67.247,37.224,60.099z"/>
		<path fill="#003E7E" d="M40.792,31.869c2.105-6.869,4.994-12.468,8.623-16.178c-10.186,2.27-19.018,8.127-25.104,16.178H40.792z"
			/>
		<path fill="#003E7E" d="M40.792,31.869c2.105-6.869,4.994-12.468,8.623-16.178c-10.186,2.27-19.018,8.127-25.104,16.178H40.792z"
			/>
	</g>
	<g>
		
			<rect x="23.151" y="13.805" transform="matrix(-0.5976 -0.8018 0.8018 -0.5976 31.2145 45.1099)" fill="#003E7E" width="7.553" height="1.834"/>
		<path fill="#003E7E" d="M33.566,10.711c-0.354-0.176-0.744-0.252-1.164-0.22c-0.408,0.029-0.957,0.16-1.68,0.399
			c-0.596,0.196-0.998,0.289-1.336,0.291c-0.137-0.02-0.23-0.076-0.291-0.176c-0.068-0.11-0.074-0.219-0.02-0.345
			c0.102-0.239,0.322-0.464,0.658-0.668c0.285-0.173,0.5-0.265,0.818-0.257c0.217,0.025,0.438,0.163,0.652,0.41l0.1,0.117
			l1.508-1.009l-0.096-0.146c-0.393-0.593-0.92-0.946-1.572-1.049c-0.641-0.1-1.385,0.099-2.205,0.6
			c-0.5,0.305-0.889,0.646-1.156,1.014c-0.273,0.378-0.42,0.78-0.436,1.196c-0.018,0.415,0.08,0.8,0.289,1.144
			c0.322,0.529,0.811,0.854,1.451,0.966c0.449,0.08,1.066-0.007,1.883-0.269c0.6-0.191,0.986-0.306,1.162-0.346
			c0.229-0.048,0.41-0.053,0.527-0.016c0.109,0.036,0.195,0.107,0.262,0.216c0.111,0.182,0.123,0.389,0.037,0.634
			c-0.09,0.255-0.322,0.499-0.693,0.725c-0.35,0.212-0.68,0.293-0.975,0.251c-0.301-0.046-0.6-0.235-0.893-0.562l-0.107-0.12
			l-1.432,1.073l0.109,0.141c0.527,0.67,1.145,1.064,1.832,1.171c0.119,0.019,0.24,0.028,0.365,0.028
			c0.584,0,1.227-0.211,1.908-0.626c0.561-0.342,0.99-0.712,1.277-1.103c0.295-0.399,0.449-0.837,0.463-1.301
			c0.014-0.461-0.096-0.889-0.328-1.27C34.232,11.188,33.921,10.887,33.566,10.711z"/>
		<path fill="#003E7E" d="M39.001,4.814c-0.896-0.361-1.879-0.319-2.912,0.129c-0.568,0.246-1.037,0.559-1.396,0.93
			c-0.275,0.283-0.494,0.63-0.65,1.031c-0.158,0.402-0.24,0.819-0.248,1.24c-0.006,0.569,0.143,1.208,0.441,1.9
			c0.473,1.091,1.164,1.827,2.057,2.186c0.395,0.159,0.811,0.24,1.236,0.24c0.535,0,1.1-0.127,1.68-0.379
			c1.031-0.447,1.729-1.13,2.076-2.03c0.346-0.9,0.277-1.917-0.203-3.022C40.599,5.925,39.9,5.176,39.001,4.814z M39.56,9.582
			c-0.166,0.489-0.49,0.833-0.988,1.049c-0.496,0.215-0.98,0.217-1.453,0.003c-0.479-0.214-0.875-0.679-1.18-1.382
			c-0.309-0.716-0.383-1.323-0.219-1.804c0.164-0.481,0.496-0.825,1.016-1.05c0.268-0.116,0.529-0.175,0.779-0.175
			c0.229,0,0.455,0.05,0.672,0.148c0.457,0.206,0.846,0.672,1.154,1.385C39.654,8.478,39.728,9.092,39.56,9.582z"/>
		<path fill="#003E7E" d="M48.277,2.202c-0.627-0.475-1.344-0.629-2.119-0.457c-0.713,0.16-1.256,0.531-1.615,1.103
			c-0.357,0.571-0.453,1.244-0.283,2c0.164,0.727,0.52,1.277,1.062,1.636c0.543,0.36,1.133,0.475,1.738,0.338
			c0.408-0.092,0.746-0.287,1.01-0.582c0.066,0.663,0.004,0.981-0.068,1.134c-0.117,0.251-0.287,0.398-0.516,0.449
			c-0.184,0.041-0.334,0.024-0.459-0.05c-0.129-0.076-0.234-0.224-0.311-0.44L46.658,7.17l-1.639,0.557l0.07,0.172
			c0.244,0.597,0.594,1.018,1.041,1.251c0.283,0.149,0.604,0.224,0.949,0.224c0.199,0,0.41-0.025,0.629-0.074
			c0.828-0.186,1.441-0.646,1.822-1.368c0.377-0.713,0.418-1.744,0.121-3.064C49.359,3.569,48.898,2.672,48.277,2.202z M47.48,5.07
			c-0.111,0.201-0.27,0.322-0.482,0.37c-0.229,0.051-0.426,0.006-0.615-0.135c-0.193-0.145-0.338-0.426-0.432-0.836
			c-0.09-0.403-0.084-0.707,0.02-0.902c0.1-0.188,0.248-0.302,0.451-0.348c0.049-0.011,0.1-0.017,0.15-0.017
			c0.164,0,0.326,0.062,0.492,0.187c0.223,0.168,0.381,0.451,0.469,0.842C47.611,4.582,47.593,4.865,47.48,5.07z"/>
		<path fill="#003E7E" d="M54.14,1.302c-0.492-0.485-1.125-0.689-1.887-0.6c-0.758,0.087-1.328,0.425-1.697,1.003
			c-0.428,0.679-0.564,1.724-0.406,3.106c0.164,1.427,0.504,2.374,1.035,2.893c0.457,0.446,1.006,0.672,1.631,0.672
			c0.105,0,0.213-0.006,0.322-0.019c0.758-0.087,1.328-0.425,1.695-1.004c0.43-0.679,0.566-1.728,0.406-3.115
			C55.08,2.846,54.71,1.859,54.14,1.302z M52.781,2.268c0.076,0.048,0.195,0.176,0.33,0.509c0.117,0.291,0.225,0.853,0.318,1.67
			c0.094,0.824,0.115,1.415,0.062,1.758c-0.035,0.239-0.102,0.414-0.193,0.506c-0.094,0.093-0.201,0.146-0.404,0.165
			c-0.102,0-0.193-0.027-0.283-0.083c-0.076-0.047-0.195-0.173-0.33-0.506C52.166,6,52.058,5.438,51.964,4.617
			c-0.096-0.823-0.117-1.416-0.064-1.762c0.037-0.244,0.102-0.415,0.195-0.507c0.092-0.093,0.199-0.145,0.33-0.16l0.064-0.169
			c0.002,0,0.004,0,0.004,0v0.166C52.597,2.183,52.691,2.211,52.781,2.268z"/>
		<path fill="#003E7E" d="M58.466,0.318c-0.002,0-0.002,0-0.002,0c-0.764,0.012-1.365,0.292-1.787,0.831
			c-0.494,0.633-0.734,1.66-0.711,3.051c0.023,1.438,0.268,2.413,0.744,2.98c0.471,0.56,1.086,0.843,1.83,0.843l0.049,0
			c0.764-0.012,1.365-0.292,1.787-0.831c0.494-0.633,0.734-1.663,0.711-3.061c-0.021-1.4-0.293-2.42-0.805-3.031
			C59.851,0.581,59.255,0.318,58.466,0.318z M57.9,2.425c0.061-0.238,0.143-0.401,0.244-0.485c0.102-0.083,0.213-0.125,0.346-0.127
			l0.01-0.173l0,0v0.173c0.127,0,0.234,0.038,0.334,0.116c0.072,0.055,0.178,0.193,0.279,0.539c0.088,0.299,0.139,0.869,0.152,1.694
			c0.012,0.825-0.025,1.416-0.113,1.756c-0.057,0.234-0.141,0.401-0.242,0.484c-0.102,0.083-0.213,0.125-0.355,0.127
			c-0.127,0-0.236-0.037-0.336-0.113c-0.07-0.055-0.176-0.193-0.277-0.537c-0.086-0.298-0.137-0.868-0.15-1.694
			C57.777,3.358,57.814,2.765,57.9,2.425z M58.541,7.844L58.541,7.844v0.004V7.844z"/>
		<path fill="#003E7E" d="M64.769,0.723c-0.191,0.389-0.504,0.72-0.936,0.982c-0.443,0.272-0.848,0.448-1.203,0.522l-0.125,0.026
			l-0.168,1.612l0.236-0.05c0.605-0.129,1.166-0.354,1.666-0.668l-0.512,4.976l1.748,0.18l0.779-7.543l-1.434-0.147L64.769,0.723z"
			/>
		
			<rect x="67.749" y="7.091" transform="matrix(-0.9818 -0.1899 0.1899 -0.9818 134.4967 28.8021)" fill="#003E7E" width="1.759" height="1.731"/>
		
			<rect x="68.491" y="3.308" transform="matrix(0.1907 -0.9817 0.9817 0.1907 52.0198 71.4741)" fill="#003E7E" width="1.731" height="1.76"/>
		<path fill="#003E7E" d="M76.431,3.649c-0.314-0.52-0.848-0.891-1.586-1.103c-0.67-0.191-1.287-0.184-1.838,0.025
			c-0.559,0.214-1,0.703-1.307,1.453l-0.068,0.164l1.645,0.652l0.061-0.169c0.123-0.337,0.273-0.558,0.449-0.655
			c0.172-0.096,0.375-0.11,0.613-0.041c0.242,0.069,0.404,0.184,0.498,0.349s0.104,0.368,0.031,0.619
			c-0.066,0.232-0.219,0.449-0.455,0.644C74.291,5.735,73.814,6,73.06,6.375c-0.98,0.483-1.648,0.892-2.041,1.25
			c-0.395,0.36-0.693,0.782-0.887,1.255l-0.074,0.181l5.102,1.465l0.451-1.568L73.08,8.23c0.033-0.022,0.066-0.044,0.102-0.066
			c0.146-0.091,0.486-0.266,1.016-0.523c0.553-0.269,0.934-0.479,1.164-0.643c0.35-0.246,0.629-0.504,0.834-0.765
			c0.209-0.266,0.363-0.569,0.457-0.9C76.824,4.74,76.75,4.173,76.431,3.649z"/>
		<path fill="#003E7E" d="M80.769,4.608c-0.703-0.29-1.371-0.27-1.971,0.056c-0.703,0.386-1.33,1.234-1.859,2.521
			c-0.547,1.328-0.709,2.32-0.496,3.032c0.215,0.715,0.684,1.226,1.393,1.517c0.33,0.136,0.654,0.205,0.963,0.205
			c0.35,0,0.689-0.088,1.006-0.261c0.715-0.391,1.324-1.218,1.865-2.529c0.533-1.295,0.688-2.339,0.461-3.102
			C81.933,5.383,81.476,4.899,80.769,4.608z M78.13,10.109c-0.043-0.077-0.086-0.244-0.041-0.601
			c0.037-0.31,0.217-0.853,0.531-1.616c0.312-0.763,0.582-1.292,0.797-1.573c0.146-0.192,0.291-0.312,0.416-0.349
			c0.053-0.015,0.105-0.023,0.158-0.023c0.068,0,0.139,0.014,0.209,0.042c0.119,0.05,0.209,0.129,0.271,0.244
			c0.043,0.079,0.086,0.248,0.041,0.605c-0.037,0.31-0.217,0.853-0.531,1.616c-0.312,0.763-0.58,1.29-0.795,1.568
			c-0.15,0.195-0.289,0.312-0.416,0.349c-0.125,0.037-0.244,0.032-0.367-0.02C78.283,10.302,78.195,10.223,78.13,10.109z"/>
		<path fill="#003E7E" d="M86.435,7.309l-0.092,0.081c-0.324,0.285-0.742,0.467-1.244,0.543c-0.512,0.078-0.949,0.084-1.312,0.014
			l-0.125-0.024l-0.779,1.422l0.236,0.045c0.609,0.116,1.211,0.126,1.797,0.031l-2.402,4.387l1.541,0.844l3.643-6.651L86.435,7.309z
			"/>
		<path fill="#003E7E" d="M92.832,13.517l0.943-1.345l-3.311-2.321l-2.98,2.884l1.045,0.978l0.09-0.02
			c0.414-0.092,0.762-0.039,1.055,0.167c0.227,0.158,0.352,0.355,0.383,0.604c0.033,0.25-0.066,0.542-0.293,0.865
			c-0.244,0.349-0.498,0.558-0.756,0.623c-0.252,0.063-0.471,0.026-0.672-0.114c-0.176-0.123-0.283-0.29-0.33-0.509
			c-0.049-0.222-0.012-0.448,0.117-0.691l0.078-0.151l-1.539-0.86l-0.082,0.162c-0.297,0.579-0.367,1.166-0.211,1.745
			c0.156,0.576,0.531,1.076,1.119,1.488c0.49,0.344,1.004,0.518,1.525,0.518c0.266,0,0.535-0.044,0.805-0.132
			c0.59-0.191,1.07-0.548,1.434-1.064c0.432-0.618,0.598-1.265,0.49-1.923c-0.107-0.66-0.441-1.189-0.99-1.574
			c-0.201-0.142-0.426-0.25-0.67-0.321l0.553-0.547L92.832,13.517z"/>
	</g>
	<g>
		<path fill="#003E7E" d="M26.048,102.871l-1.018-1.562l-0.15,0.113c-0.4,0.303-0.773,0.461-1.139,0.469
			c-0.324,0-0.609-0.107-0.873-0.326c-0.375-0.31-0.561-0.685-0.57-1.146c-0.01-0.465,0.264-1.039,0.814-1.703
			c0.518-0.624,1.012-0.977,1.471-1.049c0.453-0.07,0.867,0.047,1.25,0.364c0.275,0.228,0.441,0.487,0.508,0.794
			c0.066,0.305,0.023,0.604-0.131,0.912l-0.078,0.156l1.674,0.832l0.072-0.17c0.252-0.577,0.346-1.113,0.279-1.594
			c-0.105-0.8-0.525-1.51-1.25-2.109c-0.826-0.686-1.736-0.976-2.686-0.861c-0.951,0.113-1.834,0.655-2.625,1.609
			c-0.75,0.904-1.094,1.844-1.023,2.791c0.07,0.949,0.504,1.76,1.291,2.411c0.635,0.524,1.297,0.81,1.971,0.845l0.135,0.003
			c0.633,0,1.285-0.229,1.939-0.683L26.048,102.871z"/>
		<polygon fill="#003E7E" points="32.248,105.98 33.072,104.652 29.937,102.706 30.593,101.647 33.962,103.736 34.791,102.404 
			29.861,99.348 25.88,105.768 30.927,108.898 31.751,107.568 28.263,105.406 29.111,104.036 		"/>
		<path fill="#003E7E" d="M40.066,105.052c-0.289-0.279-0.791-0.576-1.535-0.907l-3.014-1.341l-3.07,6.902l1.676,0.746l1.223-2.748
			l0.115,0.051c0.293,0.131,0.494,0.246,0.6,0.346c0.102,0.093,0.182,0.223,0.242,0.387c0.064,0.18,0.158,0.603,0.275,1.258
			l0.361,1.959l1.996,0.888l-0.297-1.964c-0.1-0.678-0.199-1.15-0.303-1.445c-0.066-0.182-0.152-0.365-0.262-0.551
			c0.484,0.078,0.914,0.037,1.283-0.122c0.479-0.208,0.842-0.583,1.08-1.116c0.186-0.419,0.246-0.846,0.18-1.266
			C40.55,105.701,40.365,105.339,40.066,105.052z M37.453,105.382c0.705,0.313,0.904,0.418,0.955,0.449
			c0.17,0.111,0.275,0.24,0.324,0.393c0.047,0.148,0.031,0.309-0.051,0.492c-0.072,0.164-0.17,0.283-0.287,0.354
			c-0.1,0.06-0.195,0.097-0.396,0.085c-0.113-0.012-0.414-0.098-1.199-0.447l-0.844-0.375l0.602-1.35L37.453,105.382z"/>
		<polygon fill="#003E7E" points="47.544,107.235 41.609,105.482 41.164,106.986 43.253,107.603 41.558,113.343 43.318,113.863 
			45.013,108.122 47.099,108.74 		"/>
		
			<rect x="47.433" y="107.394" transform="matrix(-0.981 -0.1939 0.1939 -0.981 74.231 229.6065)" fill="#003E7E" width="1.834" height="7.554"/>
		<polygon fill="#003E7E" points="50.373,115.407 52.195,115.596 52.509,112.55 55.562,112.865 55.722,111.305 52.671,110.99 
			52.81,109.642 56.345,110.007 56.507,108.447 51.146,107.894 		"/>
		
			<rect x="57.206" y="108.419" transform="matrix(-0.9999 -0.0165 0.0165 -0.9999 114.3874 225.3361)" fill="#003E7E" width="1.834" height="7.554"/>
		<path fill="#003E7E" d="M64.986,112.812c-0.076,0.495-0.232,0.868-0.469,1.107s-0.521,0.369-0.875,0.397
			c-0.053,0.004-0.104,0.007-0.154,0.007c-0.416,0-0.76-0.142-1.055-0.431c-0.332-0.327-0.533-0.93-0.602-1.79
			c-0.064-0.807,0.043-1.405,0.322-1.777c0.279-0.371,0.656-0.57,1.15-0.609c0.355-0.029,0.656,0.041,0.916,0.215
			c0.262,0.173,0.439,0.416,0.543,0.745l0.055,0.167l1.779-0.57l-0.066-0.172c-0.223-0.59-0.529-1.039-0.91-1.338
			c-0.635-0.501-1.432-0.714-2.369-0.641c-1.07,0.085-1.92,0.508-2.525,1.254c-0.604,0.744-0.859,1.748-0.76,2.985
			c0.094,1.171,0.502,2.085,1.211,2.714c0.631,0.559,1.393,0.842,2.264,0.842c0.113,0,0.227-0.004,0.344-0.014
			c0.82-0.066,1.494-0.324,2.002-0.77s0.85-1.096,1.014-1.932l0.031-0.167l-1.818-0.409L64.986,112.812z"/>
		<path fill="#003E7E" d="M69.408,107.353l-1.23,8.035l1.904-0.438l0.225-1.73l2.627-0.604l0.992,1.451l1.943-0.447l-4.701-6.67
			L69.408,107.353z M71.988,111.228l-1.461,0.336l0.275-2.115L71.988,111.228z"/>
		<polygon fill="#003E7E" points="78.937,104.433 73.109,106.518 73.638,107.995 75.691,107.26 77.708,112.896 79.433,112.278 
			77.417,106.642 79.464,105.909 		"/>
		
			<rect x="78.022" y="106.269" transform="matrix(-0.4201 -0.9075 0.9075 -0.4201 18.8971 226.4479)" fill="#003E7E" width="7.555" height="1.834"/>
		<path fill="#003E7E" d="M87.832,100.587c-0.936-0.242-1.906-0.067-2.869,0.513c-0.529,0.319-0.953,0.69-1.262,1.106
			c-0.234,0.316-0.406,0.689-0.508,1.108s-0.129,0.843-0.082,1.261c0.068,0.566,0.301,1.181,0.689,1.826
			c0.613,1.02,1.395,1.656,2.328,1.895c0.268,0.068,0.543,0.104,0.816,0.104c0.672,0,1.363-0.211,2.055-0.627
			c0.963-0.578,1.564-1.348,1.789-2.286c0.225-0.938,0.023-1.937-0.598-2.969C89.564,101.477,88.771,100.827,87.832,100.587z
			 M85.796,102.457c0.32-0.192,0.643-0.29,0.959-0.29c0.156,0,0.316,0.024,0.475,0.072c0.48,0.144,0.928,0.555,1.328,1.221
			c0.404,0.673,0.561,1.271,0.459,1.779c-0.1,0.508-0.377,0.891-0.842,1.172c-0.463,0.277-0.941,0.343-1.441,0.195
			c-0.5-0.15-0.953-0.559-1.35-1.216c-0.402-0.668-0.555-1.26-0.455-1.759S85.312,102.749,85.796,102.457z"/>
		<polygon fill="#003E7E" points="98.5,100.587 93.669,94.779 92.341,95.884 95.138,99.248 90.238,97.632 88.919,98.73 
			93.75,104.538 95.078,103.433 92.349,100.152 97.146,101.712 		"/>
	</g>
</g>
</svg>
